<svg version="1.1" xmlns="http://www.w3.org/2000/svg" xmlns:xlink="http://www.w3.org/1999/xlink" width="512.5593740492216" height="415.6364"><style xmlns="http://www.w3.org/1999/xhtml"></style><defs/><g transform="translate(0,0)"><path fill="none" stroke="none" stroke-dasharray="undefined"/><g><rect fill="#FFFFFF" stroke="none" x="0" y="0" width="512.5593740492216" height="415.6364"/></g><g data-width="119.99999999999999" data-height="90" data-layerId="HmwaDfLo7mVG" transform="translate(0,0) matrix(1,0,0,1,140,150)"><g><g transform="translate(0,0) scale(1.2,0.9)"><g><path fill="#FFFFFF" stroke="#333333" stroke-dasharray="1.7976931348623157e+308" d="M 0 0 L 100 0 Q 100 0 100 0 L 100 100 Q 100 100 100 100 L 0 100 Q 0 100 0 100 L 0 0 Q 0 0 0 0 Z" stroke-miterlimit="10" stroke-width="2"/><g transform="scale(0.8333333333333334,1.1111111111111112)"/></g></g></g></g><g transform="matrix(1,0,0,1,142,181)"><g><g><rect fill="rgb(0,0,0)" stroke="none" x="0" y="0" width="116" height="27" fill-opacity="0"/></g></g><g><g><rect fill="rgb(0,0,0)" stroke="none" x="0" y="0" width="116" height="27" fill-opacity="0"/></g></g><g><g><rect fill="rgb(0,0,0)" stroke="none" x="12.017045021057129" y="0" width="92" height="27" fill-opacity="0"/></g></g><g><g><rect fill="rgb(0,0,0)" stroke="none" x="12.017045021057129" y="0" width="92" height="27" fill-opacity="0"/></g><text fill="rgb(0, 0, 0)" stroke="none" font-family="Arial" font-size="12px" font-style="normal" font-weight="700" text-decoration="" line-height="14px" x="45" y="11" data-layerId="HmwaDfLo7mVG">POC</text><text fill="rgb(0, 0, 0)" stroke="none" font-family="Arial" font-size="12px" font-style="normal" font-weight="700" text-decoration="" line-height="14px" x="12.017045021057129" y="24.63636302947998" data-layerId="HmwaDfLo7mVG">Swisstransplant</text></g></g><g data-width="100" data-height="70" data-layerId="HmwaDfLo7mVG" transform="translate(0,0) matrix(1,0,0,1,150,50)"><g><g transform="translate(0,0) scale(1,0.7)"><g><path fill="#FFFFFF" stroke="#000000" data-layerId="HmwaDfLo7mVG" stroke-dasharray="1.7976931348623157e+308" d="M 0 0 L 100 0 L 100 100 L 0 100 L 0 0 L 10 -14.285714285714286 L 110 -14.285714285714286 L 100 0 L 110 -14.285714285714286 L 110 85.71428571428571 L 100 100" stroke-linejoin="round" stroke-miterlimit="10" stroke-width="2"/><g transform="scale(1,1.4285714285714286)"/></g></g></g></g><g transform="matrix(1,0,0,1,152,58)"><g><g><rect fill="rgb(0,0,0)" stroke="none" x="0" y="0" width="96" height="14" fill-opacity="0"/></g></g><g><g><rect fill="rgb(0,0,0)" stroke="none" x="0" y="0" width="96" height="14" fill-opacity="0"/></g></g><g><g><rect fill="rgb(0,0,0)" stroke="none" x="31.33522605895996" y="0" width="34" height="14" fill-opacity="0"/></g></g><g><g><rect fill="rgb(0,0,0)" stroke="none" x="31.33522605895996" y="0" width="34" height="14" fill-opacity="0"/></g><text fill="rgb(0, 0, 0)" stroke="none" font-family="Arial" font-size="12px" font-style="normal" font-weight="normal" text-decoration="" line-height="14px" x="31.33522605895996" y="11" data-layerId="HmwaDfLo7mVG">SOAS</text></g></g><g data-width="63" data-height="100" data-layerId="HmwaDfLo7mVG" transform="translate(0.5,0.5) matrix(1,0,0,1,418.5,0)"><g><g transform="translate(0,0) translate(0,0) scale(2.1,2)"><g><path fill="#FFFFFF" stroke="#000000" data-layerId="HmwaDfLo7mVG" stroke-dasharray="1.7976931348623157e+308" d="M 20 5 A 5 5 0 1 0 19.99999750000021 5.004999999166668 Z" stroke-miterlimit="10"/><g transform="scale(0.47619047619047616,0.5)"/></g><g><path fill="rgb(0,0,0)" stroke="#000000" data-layerId="HmwaDfLo7mVG" stroke-dasharray="1.7976931348623157e+308" d="M 15 10 L 15 30" fill-opacity="0" stroke-miterlimit="10"/><g transform="scale(0.47619047619047616,0.5)"/></g><g><path fill="rgb(0,0,0)" stroke="#000000" data-layerId="HmwaDfLo7mVG" stroke-dasharray="1.7976931348623157e+308" d="M 15 30 L 10 50" fill-opacity="0" stroke-miterlimit="10"/><g transform="scale(0.47619047619047616,0.5)"/></g><g><path fill="rgb(0,0,0)" stroke="#000000" data-layerId="HmwaDfLo7mVG" stroke-dasharray="1.7976931348623157e+308" d="M 15 30 L 20 50" fill-opacity="0" stroke-miterlimit="10"/><g transform="scale(0.47619047619047616,0.5)"/></g><g><path fill="rgb(0,0,0)" stroke="#000000" data-layerId="HmwaDfLo7mVG" stroke-dasharray="1.7976931348623157e+308" d="M 15 30 L 20 50" fill-opacity="0" stroke-miterlimit="10"/><g transform="scale(0.47619047619047616,0.5)"/></g><g><path fill="rgb(0,0,0)" stroke="#000000" data-layerId="HmwaDfLo7mVG" stroke-dasharray="1.7976931348623157e+308" d="M 0 15 L 30 15" fill-opacity="0" stroke-miterlimit="10"/><g transform="scale(0.47619047619047616,0.5)"/></g></g></g></g><g transform="matrix(1,0,0,1,424,102)"><g><g><rect fill="rgb(0,0,0)" stroke="none" x="0" y="0" width="50" height="14" fill-opacity="0"/></g></g><g><g><rect fill="rgb(0,0,0)" stroke="none" x="0" y="0" width="50" height="14" fill-opacity="0"/></g></g><g><g><rect fill="rgb(0,0,0)" stroke="none" x="2.485795259475708" y="0" width="45" height="14" fill-opacity="0"/></g></g><g><g><rect fill="rgb(0,0,0)" stroke="none" x="2.485795259475708" y="0" width="45" height="14" fill-opacity="0"/></g><text fill="rgb(0, 0, 0)" stroke="none" font-family="Arial" font-size="12px" font-style="normal" font-weight="normal" text-decoration="" line-height="14px" x="2.485795259475708" y="11" data-layerId="HmwaDfLo7mVG">Spender</text></g></g><g data-width="63" data-height="100" data-layerId="HmwaDfLo7mVG" transform="translate(0.5,0.5) matrix(1,0,0,1,418.5,144.5)"><g><g transform="translate(0,0) translate(0,0) scale(2.1,2)"><g><path fill="#FFFFFF" stroke="#000000" data-layerId="HmwaDfLo7mVG" stroke-dasharray="1.7976931348623157e+308" d="M 20 5 A 5 5 0 1 0 19.99999750000021 5.004999999166668 Z" stroke-miterlimit="10"/><g transform="scale(0.47619047619047616,0.5)"/></g><g><path fill="rgb(0,0,0)" stroke="#000000" data-layerId="HmwaDfLo7mVG" stroke-dasharray="1.7976931348623157e+308" d="M 15 10 L 15 30" fill-opacity="0" stroke-miterlimit="10"/><g transform="scale(0.47619047619047616,0.5)"/></g><g><path fill="rgb(0,0,0)" stroke="#000000" data-layerId="HmwaDfLo7mVG" stroke-dasharray="1.7976931348623157e+308" d="M 15 30 L 10 50" fill-opacity="0" stroke-miterlimit="10"/><g transform="scale(0.47619047619047616,0.5)"/></g><g><path fill="rgb(0,0,0)" stroke="#000000" data-layerId="HmwaDfLo7mVG" stroke-dasharray="1.7976931348623157e+308" d="M 15 30 L 20 50" fill-opacity="0" stroke-miterlimit="10"/><g transform="scale(0.47619047619047616,0.5)"/></g><g><path fill="rgb(0,0,0)" stroke="#000000" data-layerId="HmwaDfLo7mVG" stroke-dasharray="1.7976931348623157e+308" d="M 15 30 L 20 50" fill-opacity="0" stroke-miterlimit="10"/><g transform="scale(0.47619047619047616,0.5)"/></g><g><path fill="rgb(0,0,0)" stroke="#000000" data-layerId="HmwaDfLo7mVG" stroke-dasharray="1.7976931348623157e+308" d="M 0 15 L 30 15" fill-opacity="0" stroke-miterlimit="10"/><g transform="scale(0.47619047619047616,0.5)"/></g></g></g></g><g transform="matrix(1,0,0,1,414,247)"><g><g><rect fill="rgb(0,0,0)" stroke="none" x="0" y="0" width="70" height="14" fill-opacity="0"/></g></g><g><g><rect fill="rgb(0,0,0)" stroke="none" x="0" y="0" width="70" height="14" fill-opacity="0"/></g></g><g><g><rect fill="rgb(0,0,0)" stroke="none" x="2.5" y="0" width="65" height="14" fill-opacity="0"/></g></g><g><g><rect fill="rgb(0,0,0)" stroke="none" x="2.5" y="0" width="65" height="14" fill-opacity="0"/></g><text fill="rgb(0, 0, 0)" stroke="none" font-family="Arial" font-size="12px" font-style="normal" font-weight="normal" text-decoration="" line-height="14px" x="2.5" y="11" data-layerId="HmwaDfLo7mVG">Angeh</text><text fill="rgb(0, 0, 0)" stroke="none" font-family="Arial" font-size="12px" font-style="normal" font-weight="normal" text-decoration="" line-height="14px" x="37.159088134765625" y="11" data-layerId="HmwaDfLo7mVG">ö</text><text fill="rgb(0, 0, 0)" stroke="none" font-family="Arial" font-size="12px" font-style="normal" font-weight="normal" text-decoration="" line-height="14px" x="43.821022033691406" y="11" data-layerId="HmwaDfLo7mVG">riger</text></g></g><g data-width="63" data-height="100" data-layerId="HmwaDfLo7mVG" transform="translate(0.5,0.5) matrix(1,0,0,1,418.5,280)"><g><g transform="translate(0,0) translate(0,0) scale(2.1,2)"><g><path fill="#FFFFFF" stroke="#000000" data-layerId="HmwaDfLo7mVG" stroke-dasharray="1.7976931348623157e+308" d="M 20 5 A 5 5 0 1 0 19.99999750000021 5.004999999166668 Z" stroke-miterlimit="10"/><g transform="scale(0.47619047619047616,0.5)"/></g><g><path fill="rgb(0,0,0)" stroke="#000000" data-layerId="HmwaDfLo7mVG" stroke-dasharray="1.7976931348623157e+308" d="M 15 10 L 15 30" fill-opacity="0" stroke-miterlimit="10"/><g transform="scale(0.47619047619047616,0.5)"/></g><g><path fill="rgb(0,0,0)" stroke="#000000" data-layerId="HmwaDfLo7mVG" stroke-dasharray="1.7976931348623157e+308" d="M 15 30 L 10 50" fill-opacity="0" stroke-miterlimit="10"/><g transform="scale(0.47619047619047616,0.5)"/></g><g><path fill="rgb(0,0,0)" stroke="#000000" data-layerId="HmwaDfLo7mVG" stroke-dasharray="1.7976931348623157e+308" d="M 15 30 L 20 50" fill-opacity="0" stroke-miterlimit="10"/><g transform="scale(0.47619047619047616,0.5)"/></g><g><path fill="rgb(0,0,0)" stroke="#000000" data-layerId="HmwaDfLo7mVG" stroke-dasharray="1.7976931348623157e+308" d="M 15 30 L 20 50" fill-opacity="0" stroke-miterlimit="10"/><g transform="scale(0.47619047619047616,0.5)"/></g><g><path fill="rgb(0,0,0)" stroke="#000000" data-layerId="HmwaDfLo7mVG" stroke-dasharray="1.7976931348623157e+308" d="M 0 15 L 30 15" fill-opacity="0" stroke-miterlimit="10"/><g transform="scale(0.47619047619047616,0.5)"/></g></g></g></g><g transform="matrix(1,0,0,1,417,382)"><g><g><rect fill="rgb(0,0,0)" stroke="none" x="0" y="0" width="64" height="14" fill-opacity="0"/></g></g><g><g><rect fill="rgb(0,0,0)" stroke="none" x="0" y="0" width="64" height="14" fill-opacity="0"/></g></g><g><g><rect fill="rgb(0,0,0)" stroke="none" x="2.5" y="0" width="58" height="14" fill-opacity="0"/></g></g><g><g><rect fill="rgb(0,0,0)" stroke="none" x="2.5" y="0" width="58" height="14" fill-opacity="0"/></g><text fill="rgb(0, 0, 0)" stroke="none" font-family="Arial" font-size="12px" font-style="normal" font-weight="normal" text-decoration="" line-height="14px" x="2.5" y="11" data-layerId="HmwaDfLo7mVG">Empf</text><text fill="rgb(0, 0, 0)" stroke="none" font-family="Arial" font-size="12px" font-style="normal" font-weight="normal" text-decoration="" line-height="14px" x="30.468748092651367" y="11" data-layerId="HmwaDfLo7mVG">ä</text><text fill="rgb(0, 0, 0)" stroke="none" font-family="Arial" font-size="12px" font-style="normal" font-weight="normal" text-decoration="" line-height="14px" x="37.1448860168457" y="11" data-layerId="HmwaDfLo7mVG">nger</text></g></g><g data-layerId="HmwaDfLo7mVG" transform="matrix(1,0,0,1,245,35)"><g transform="translate(0,0)"><path fill="none" stroke="none" stroke-dasharray="undefined"/><g transform="translate(-344,-192) translate(99,157) matrix(1,0,0,1,0,0)"><g><g><path fill="none" stroke="#000000" stroke-dasharray="undefined" d="M 260 195 L 450 50" stroke-miterlimit="10" stroke-width="2"/></g></g></g></g></g><g data-layerId="HmwaDfLo7mVG" transform="matrix(1,0,0,1,245,180)"><g transform="translate(0,0)"><path fill="none" stroke="none" stroke-dasharray="undefined"/><g transform="translate(-336,-201) translate(91,21) matrix(1,0,0,1,0,0)"><g><g><path fill="none" stroke="#000000" stroke-dasharray="undefined" d="M 260 195 L 322.51979134974056 195 Q 332.51979134974056 195 342.51979134974056 195 L 395.03958269948106 195 Q 405.03958269948106 195 415.03958269948106 195 L 477.55937404922156 195" stroke-miterlimit="10" stroke-width="2"/></g></g></g></g></g><g data-layerId="HmwaDfLo7mVG" transform="matrix(1,0,0,1,245,180)"><g transform="translate(0,0)"><path fill="none" stroke="none" stroke-dasharray="undefined"/><g transform="translate(-339,-199) translate(94,19) matrix(1,0,0,1,0,0)"><g><g><path fill="none" stroke="#000000" stroke-dasharray="undefined" d="M 260 195 L 450 330" stroke-miterlimit="10" stroke-width="2"/></g></g></g></g></g><g data-layerId="HmwaDfLo7mVG" transform="matrix(1,0,0,1,185,105)"><g transform="translate(0,0)"><path fill="none" stroke="none" stroke-dasharray="undefined"/><g transform="translate(-196,-148) translate(11,43) matrix(1,0,0,1,0,0)"><g><g><path fill="none" stroke="#000000" stroke-dasharray="undefined" d="M 200 150 L 200 120" stroke-miterlimit="10" stroke-width="2"/></g></g></g></g></g><g data-layerId="HmwaDfLo7mVG" transform="matrix(1,0,0,1,26.5,179.5)"><g transform="translate(0,0)"><path fill="none" stroke="none" stroke-dasharray="undefined"/><g transform="translate(-105,-195) translate(78.5,15.5) matrix(1,0,0,1,0,0)"><g><g><path fill="none" stroke="#000000" stroke-dasharray="undefined" d="M 41.5 194.5 L 64.33375634245274 194.5 Q 74.33375634245274 194.5 84.33375634245274 194.5 L 97.16751268490547 194.5 Q 107.16751268490547 194.5 117.16751268490547 194.5 L 140.0012690273582 194.5" stroke-miterlimit="10" stroke-width="2"/></g></g></g></g></g><g data-width="63" data-height="100" data-layerId="HmwaDfLo7mVG" transform="translate(0.5,0.5) matrix(1,0,0,1,10,144.5)"><g><g transform="translate(0,0) translate(0,0) scale(2.1,2)"><g><path fill="#FFFFFF" stroke="#000000" data-layerId="HmwaDfLo7mVG" stroke-dasharray="1.7976931348623157e+308" d="M 20 5 A 5 5 0 1 0 19.99999750000021 5.004999999166668 Z" stroke-miterlimit="10"/><g transform="scale(0.47619047619047616,0.5)"/></g><g><path fill="rgb(0,0,0)" stroke="#000000" data-layerId="HmwaDfLo7mVG" stroke-dasharray="1.7976931348623157e+308" d="M 15 10 L 15 30" fill-opacity="0" stroke-miterlimit="10"/><g transform="scale(0.47619047619047616,0.5)"/></g><g><path fill="rgb(0,0,0)" stroke="#000000" data-layerId="HmwaDfLo7mVG" stroke-dasharray="1.7976931348623157e+308" d="M 15 30 L 10 50" fill-opacity="0" stroke-miterlimit="10"/><g transform="scale(0.47619047619047616,0.5)"/></g><g><path fill="rgb(0,0,0)" stroke="#000000" data-layerId="HmwaDfLo7mVG" stroke-dasharray="1.7976931348623157e+308" d="M 15 30 L 20 50" fill-opacity="0" stroke-miterlimit="10"/><g transform="scale(0.47619047619047616,0.5)"/></g><g><path fill="rgb(0,0,0)" stroke="#000000" data-layerId="HmwaDfLo7mVG" stroke-dasharray="1.7976931348623157e+308" d="M 15 30 L 20 50" fill-opacity="0" stroke-miterlimit="10"/><g transform="scale(0.47619047619047616,0.5)"/></g><g><path fill="rgb(0,0,0)" stroke="#000000" data-layerId="HmwaDfLo7mVG" stroke-dasharray="1.7976931348623157e+308" d="M 0 15 L 30 15" fill-opacity="0" stroke-miterlimit="10"/><g transform="scale(0.47619047619047616,0.5)"/></g></g></g></g><g transform="matrix(1,0,0,1,23,247)"><g><g><rect fill="rgb(0,0,0)" stroke="none" x="0" y="0" width="35" height="14" fill-opacity="0"/></g></g><g><g><rect fill="rgb(0,0,0)" stroke="none" x="0" y="0" width="35" height="14" fill-opacity="0"/></g></g><g><g><rect fill="rgb(0,0,0)" stroke="none" x="2.5" y="0" width="30" height="14" fill-opacity="0"/></g></g><g><g><rect fill="rgb(0,0,0)" stroke="none" x="2.5" y="0" width="30" height="14" fill-opacity="0"/></g><text fill="rgb(0, 0, 0)" stroke="none" font-family="Arial" font-size="12px" font-style="normal" font-weight="normal" text-decoration="" line-height="14px" x="2.5" y="11" data-layerId="HmwaDfLo7mVG">Spital</text></g></g><g data-width="100" data-height="70" data-layerId="HmwaDfLo7mVG" transform="translate(0,0) matrix(1,0,0,1,150,280)"><g><g transform="translate(0,0) scale(1,0.7)"><g><path fill="#FFFFFF" stroke="#000000" data-layerId="HmwaDfLo7mVG" stroke-dasharray="1.7976931348623157e+308" d="M 0 0 L 100 0 L 100 100 L 0 100 L 0 0 L 10 -14.285714285714286 L 110 -14.285714285714286 L 100 0 L 110 -14.285714285714286 L 110 85.71428571428571 L 100 100" stroke-linejoin="round" stroke-miterlimit="10" stroke-width="2"/><g transform="scale(1,1.4285714285714286)"/></g></g></g></g><g transform="matrix(1,0,0,1,152,288)"><g><g><rect fill="rgb(0,0,0)" stroke="none" x="0" y="0" width="96" height="14" fill-opacity="0"/></g></g><g><g><rect fill="rgb(0,0,0)" stroke="none" x="0" y="0" width="96" height="14" fill-opacity="0"/></g></g><g><g><rect fill="rgb(0,0,0)" stroke="none" x="30.568180084228516" y="0" width="35" height="14" fill-opacity="0"/></g></g><g><g><rect fill="rgb(0,0,0)" stroke="none" x="30.568180084228516" y="0" width="35" height="14" fill-opacity="0"/></g><text fill="rgb(0, 0, 0)" stroke="none" font-family="Arial" font-size="12px" font-style="normal" font-weight="normal" text-decoration="" line-height="14px" x="30.568180084228516" y="11" data-layerId="HmwaDfLo7mVG">Trinsic</text></g></g><g data-layerId="HmwaDfLo7mVG" transform="matrix(1,0,0,1,185,225)"><g transform="translate(0,0)"><path fill="none" stroke="none" stroke-dasharray="undefined"/><g transform="translate(-202,-240) translate(17,15) matrix(1,0,0,1,0,0)"><g><g><path fill="none" stroke="#000000" stroke-dasharray="undefined" d="M 200 240 L 200 246.66666666666669 Q 200 253.33333333333334 200 260 L 200 260 Q 200 266.6666666666667 200 273.33333333333337 L 200 280" stroke-miterlimit="10" stroke-width="2"/></g></g></g></g></g></g></svg>