<svg version="1.1" xmlns="http://www.w3.org/2000/svg" xmlns:xlink="http://www.w3.org/1999/xlink" width="695.4971499999999" height="380"><style xmlns="http://www.w3.org/1999/xhtml"></style><defs/><g transform="translate(0,0)"><path fill="none" stroke="none" stroke-dasharray="undefined"/><g><rect fill="#FFFFFF" stroke="none" x="0" y="0" width="695.4971499999999" height="380"/></g><g data-width="150" data-height="100" data-layerId="oEiSIQcXKEuz" transform="translate(0,0) matrix(1,0,0,1,0,130)"><g><g transform="translate(0,0) scale(1.5,1)"><g><path fill="#FFFFFF" stroke="#000000" stroke-dasharray="undefined" d="M 0 0 L 100 0 L 100 100 L 0 100 L 0 0 L 6.666666666666666 -10 L 106.66666666666667 -10 L 100 0 L 106.66666666666667 -10 L 106.66666666666667 90 L 100 100" stroke-linejoin="round" stroke-miterlimit="10" stroke-width="2"/><g transform="scale(0.6666666666666666,1)"/></g></g></g></g><g transform="matrix(1,0,0,1,2,138)"><g><g><rect fill="rgb(0,0,0)" stroke="none" x="0" y="0" width="146" height="14" fill-opacity="0"/></g></g><g><g><rect fill="rgb(0,0,0)" stroke="none" x="0" y="0" width="146" height="14" fill-opacity="0"/></g></g><g><g><rect fill="rgb(0,0,0)" stroke="none" x="38.125" y="0" width="70" height="14" fill-opacity="0"/></g></g><g><g><rect fill="rgb(0,0,0)" stroke="none" x="38.125" y="0" width="70" height="14" fill-opacity="0"/></g><text fill="rgb(0, 0, 0)" stroke="none" font-family="Arial" font-size="12px" font-style="normal" font-weight="normal" text-decoration="" line-height="14px" x="38.125" y="11" data-layerId="oEiSIQcXKEuz">HTTP</text><text fill="rgb(0, 0, 0)" stroke="none" font-family="Arial" font-size="12px" font-style="normal" font-weight="normal" text-decoration="" line-height="14px" x="72.52840423583984" y="11" data-layerId="oEiSIQcXKEuz">Server</text></g></g><g data-width="150" data-height="100" data-layerId="oEiSIQcXKEuz" transform="translate(0,0) matrix(1,0,0,1,470,130)"><g><g transform="translate(0,0) scale(1.5,1)"><g><path fill="#FFFFFF" stroke="#000000" data-layerId="oEiSIQcXKEuz" stroke-dasharray="undefined" d="M 0 0 L 100 0 L 100 100 L 0 100 L 0 0 L 6.666666666666666 -10 L 106.66666666666667 -10 L 100 0 L 106.66666666666667 -10 L 106.66666666666667 90 L 100 100" stroke-linejoin="round" stroke-miterlimit="10" stroke-width="2"/><g transform="scale(0.6666666666666666,1)"/></g></g></g></g><g transform="matrix(1,0,0,1,472,138)"><g><g><rect fill="rgb(0,0,0)" stroke="none" x="0" y="0" width="146" height="14" fill-opacity="0"/></g></g><g><g><rect fill="rgb(0,0,0)" stroke="none" x="0" y="0" width="146" height="14" fill-opacity="0"/></g></g><g><g><rect fill="rgb(0,0,0)" stroke="none" x="44.57386016845703" y="0" width="57" height="14" fill-opacity="0"/></g></g><g><g><rect fill="rgb(0,0,0)" stroke="none" x="44.57386016845703" y="0" width="57" height="14" fill-opacity="0"/></g><text fill="rgb(0, 0, 0)" stroke="none" font-family="Arial" font-size="12px" font-style="normal" font-weight="normal" text-decoration="" line-height="14px" x="44.57386016845703" y="11" data-layerId="oEiSIQcXKEuz">Trinsci</text><text fill="rgb(0, 0, 0)" stroke="none" font-family="Arial" font-size="12px" font-style="normal" font-weight="normal" text-decoration="" line-height="14px" x="82.08806610107422" y="11" data-layerId="oEiSIQcXKEuz">API</text></g></g><g data-width="150" data-height="100" data-layerId="oEiSIQcXKEuz" transform="translate(0,0) matrix(1,0,0,1,240,130)"><g><g transform="translate(0,0) scale(1.5,1)"><g><path fill="#FFFFFF" stroke="#333333" data-layerId="oEiSIQcXKEuz" stroke-dasharray="1.7976931348623157e+308" d="M 0 0 L 100 0 Q 100 0 100 0 L 100 100 Q 100 100 100 100 L 0 100 Q 0 100 0 100 L 0 0 Q 0 0 0 0 Z" stroke-miterlimit="10" stroke-width="2"/><g transform="scale(0.6666666666666666,1)"/></g></g></g></g><g transform="matrix(1,0,0,1,242,173)"><g><g><rect fill="rgb(0,0,0)" stroke="none" x="0" y="0" width="146" height="14" fill-opacity="0"/></g></g><g><g><rect fill="rgb(0,0,0)" stroke="none" x="0" y="0" width="146" height="14" fill-opacity="0"/></g></g><g><g><rect fill="rgb(0,0,0)" stroke="none" x="12.357954025268555" y="0" width="121" height="14" fill-opacity="0"/></g></g><g><g><rect fill="rgb(0,0,0)" stroke="none" x="12.357954025268555" y="0" width="121" height="14" fill-opacity="0"/></g><text fill="rgb(0, 0, 0)" stroke="none" font-family="Arial" font-size="12px" font-style="normal" font-weight="700" text-decoration="" line-height="14px" x="12.357954025268555" y="11" data-layerId="oEiSIQcXKEuz">POC</text><text fill="rgb(0, 0, 0)" stroke="none" font-family="Arial" font-size="12px" font-style="normal" font-weight="700" text-decoration="" line-height="14px" x="41.661930084228516" y="11" data-layerId="oEiSIQcXKEuz">Swisstransplant</text></g></g><g data-layerId="oEiSIQcXKEuz" transform="matrix(1,0,0,1,135,165)"><g transform="translate(0,0)"><path fill="none" stroke="none" stroke-dasharray="undefined"/><g transform="translate(-240,-181) translate(105,16) matrix(1,0,0,1,0,0)"><g><g><path fill="none" stroke="#000000" stroke-dasharray="undefined" d="M 240 180 L 220 180 Q 210 180 200 180 L 190 180 Q 180 180 170 180 L 150 180" stroke-miterlimit="10" stroke-width="2"/></g></g></g></g></g><g data-layerId="oEiSIQcXKEuz" transform="matrix(1,0,0,1,375,165)"><g transform="translate(0,0)"><path fill="none" stroke="none" stroke-dasharray="undefined"/><g transform="translate(-393,-181) translate(18,16) matrix(1,0,0,1,0,0)"><g><g><path fill="none" stroke="#000000" stroke-dasharray="undefined" d="M 390 180 L 406.6666666666667 180 Q 416.6666666666667 180 426.6666666666667 180 L 433.3333333333333 180 Q 443.3333333333333 180 453.3333333333333 180 L 470 180" stroke-miterlimit="10" stroke-width="2"/></g></g></g></g></g><g transform="matrix(1,0,0,1,415,173)"><g><path fill="none" stroke="none" data-layerId="oEiSIQcXKEuz" stroke-dasharray="1.7976931348623157e+308" d="M 0 0 L 31 0 L 31 14 L 0 14 Z"/><g><rect fill="rgb(255, 255, 255)" stroke="none" x="0" y="0" width="31" height="14"/></g></g><g><path fill="none" stroke="none" data-layerId="oEiSIQcXKEuz" stroke-dasharray="1.7976931348623157e+308" d="M 0 0 L 31 0 L 31 14 L 0 14 Z"/><g><rect fill="rgb(0,0,0)" stroke="none" x="0" y="0" width="31" height="14" fill-opacity="0"/></g></g><g><path fill="none" stroke="none" data-layerId="oEiSIQcXKEuz" stroke-dasharray="1.7976931348623157e+308" d="M 2.485795259475708 0 L 27.485795259475708 0 L 27.485795259475708 14 L 2.485795259475708 14 Z"/><g><rect fill="rgb(0,0,0)" stroke="none" x="2.485795259475708" y="0" width="25" height="14" fill-opacity="0"/></g></g><g><path fill="none" stroke="none" data-layerId="oEiSIQcXKEuz" stroke-dasharray="1.7976931348623157e+308" d="M 2.485795259475708 0 L 27.485795259475708 0 L 27.485795259475708 14 L 2.485795259475708 14 Z"/><g><rect fill="rgb(0,0,0)" stroke="none" x="2.485795259475708" y="0" width="25" height="14" fill-opacity="0"/></g><text fill="rgb(0, 0, 0)" stroke="none" font-family="Arial" font-size="12px" font-style="normal" font-weight="normal" text-decoration="" line-height="14px" x="2.485795259475708" y="11" data-layerId="oEiSIQcXKEuz">https</text></g></g><g data-width="150" data-height="100" data-layerId="oEiSIQcXKEuz" transform="translate(0,0) matrix(1,0,0,1,0,260)"><g><g transform="translate(0,0) scale(1.5,1)"><g><path fill="#FFFFFF" stroke="#000000" data-layerId="oEiSIQcXKEuz" stroke-dasharray="1.7976931348623157e+308" d="M 0 0 L 100 0 L 100 100 L 0 100 L 0 0 L 6.666666666666666 -10 L 106.66666666666667 -10 L 100 0 L 106.66666666666667 -10 L 106.66666666666667 90 L 100 100" stroke-linejoin="round" stroke-miterlimit="10" stroke-width="2"/><g transform="scale(0.6666666666666666,1)"/></g></g></g></g><g transform="matrix(1,0,0,1,2,268)"><g><g><rect fill="rgb(0,0,0)" stroke="none" x="0" y="0" width="146" height="14" fill-opacity="0"/></g></g><g><g><rect fill="rgb(0,0,0)" stroke="none" x="0" y="0" width="146" height="14" fill-opacity="0"/></g></g><g><g><rect fill="rgb(0,0,0)" stroke="none" x="45.34090805053711" y="0" width="55" height="14" fill-opacity="0"/></g></g><g><g><rect fill="rgb(0,0,0)" stroke="none" x="45.34090805053711" y="0" width="55" height="14" fill-opacity="0"/></g><text fill="rgb(0, 0, 0)" stroke="none" font-family="Arial" font-size="12px" font-style="normal" font-weight="normal" text-decoration="" line-height="14px" x="45.34090805053711" y="11" data-layerId="oEiSIQcXKEuz">DB</text><text fill="rgb(0, 0, 0)" stroke="none" font-family="Arial" font-size="12px" font-style="normal" font-weight="normal" text-decoration="" line-height="14px" x="65.3125" y="11" data-layerId="oEiSIQcXKEuz">Server</text></g></g><g data-layerId="oEiSIQcXKEuz" transform="matrix(1,0,0,1,135,215)"><g transform="translate(0,0)"><path fill="none" stroke="none" stroke-dasharray="undefined"/><g transform="translate(-310,-231) translate(175,16) matrix(1,0,0,1,0,0)"><g><g><path fill="none" stroke="#000000" stroke-dasharray="undefined" d="M 315 230 L 315 300 Q 315 310 305 310 L 150 310" stroke-miterlimit="10" stroke-width="2"/></g></g></g></g></g><g data-width="150" data-height="100" data-layerId="oEiSIQcXKEuz" transform="translate(0,0) matrix(1,0,0,1,470,260)"><g><g transform="translate(0,0) scale(1.5,1)"><g><path fill="#FFFFFF" stroke="#000000" data-layerId="oEiSIQcXKEuz" stroke-dasharray="1.7976931348623157e+308" d="M 0 0 L 100 0 L 100 100 L 0 100 L 0 0 L 6.666666666666666 -10 L 106.66666666666667 -10 L 100 0 L 106.66666666666667 -10 L 106.66666666666667 90 L 100 100" stroke-linejoin="round" stroke-miterlimit="10" stroke-width="2"/><g transform="scale(0.6666666666666666,1)"/></g></g></g></g><g transform="matrix(1,0,0,1,472,268)"><g><g><rect fill="rgb(0,0,0)" stroke="none" x="0" y="0" width="146" height="14" fill-opacity="0"/></g></g><g><g><rect fill="rgb(0,0,0)" stroke="none" x="0" y="0" width="146" height="14" fill-opacity="0"/></g></g><g><g><rect fill="rgb(0,0,0)" stroke="none" x="42.2301139831543" y="0" width="62" height="14" fill-opacity="0"/></g></g><g><g><rect fill="rgb(0,0,0)" stroke="none" x="42.2301139831543" y="0" width="62" height="14" fill-opacity="0"/></g><text fill="rgb(0, 0, 0)" stroke="none" font-family="Arial" font-size="12px" font-style="normal" font-weight="normal" text-decoration="" line-height="14px" x="42.2301139831543" y="11" data-layerId="oEiSIQcXKEuz">User</text><text fill="rgb(0, 0, 0)" stroke="none" font-family="Arial" font-size="12px" font-style="normal" font-weight="normal" text-decoration="" line-height="14px" x="70.8664779663086" y="11" data-layerId="oEiSIQcXKEuz">Wallet</text></g></g><g data-layerId="oEiSIQcXKEuz" transform="matrix(1,0,0,1,300,215)"><g transform="translate(0,0)"><path fill="none" stroke="none" stroke-dasharray="undefined"/><g transform="translate(-311,-236) translate(11,21) matrix(1,0,0,1,0,0)"><g><g><path fill="none" stroke="#000000" stroke-dasharray="undefined" d="M 315 230 L 315 300 Q 315 310 325 310 L 470 310" stroke-miterlimit="10" stroke-width="2"/></g></g></g></g></g><g data-layerId="oEiSIQcXKEuz" transform="matrix(1,0,0,1,605,165)"><g transform="translate(0,0)"><path fill="none" stroke="none" stroke-dasharray="undefined"/><g transform="translate(-618,-178) translate(13,13) matrix(1,0,0,1,0,0)"><g><g><path fill="none" stroke="#000000" stroke-dasharray="undefined" d="M 620 180 L 650 180 Q 660 180 660 190 L 660 300 Q 660 310 650 310 L 620 310" stroke-miterlimit="10" stroke-width="2"/></g></g></g></g></g><g transform="matrix(1,0,0,1,645,234)"><g><path fill="none" stroke="none" data-layerId="oEiSIQcXKEuz" stroke-dasharray="1.7976931348623157e+308" d="M 0 0 L 31 0 L 31 14 L 0 14 Z"/><g><rect fill="rgb(255, 255, 255)" stroke="none" x="0" y="0" width="31" height="14"/></g></g><g><path fill="none" stroke="none" data-layerId="oEiSIQcXKEuz" stroke-dasharray="1.7976931348623157e+308" d="M 0 0 L 31 0 L 31 14 L 0 14 Z"/><g><rect fill="rgb(0,0,0)" stroke="none" x="0" y="0" width="31" height="14" fill-opacity="0"/></g></g><g><path fill="none" stroke="none" data-layerId="oEiSIQcXKEuz" stroke-dasharray="1.7976931348623157e+308" d="M 2.485795259475708 0 L 27.485795259475708 0 L 27.485795259475708 14 L 2.485795259475708 14 Z"/><g><rect fill="rgb(0,0,0)" stroke="none" x="2.485795259475708" y="0" width="25" height="14" fill-opacity="0"/></g></g><g><path fill="none" stroke="none" data-layerId="oEiSIQcXKEuz" stroke-dasharray="1.7976931348623157e+308" d="M 2.485795259475708 0 L 27.485795259475708 0 L 27.485795259475708 14 L 2.485795259475708 14 Z"/><g><rect fill="rgb(0,0,0)" stroke="none" x="2.485795259475708" y="0" width="25" height="14" fill-opacity="0"/></g><text fill="rgb(0, 0, 0)" stroke="none" font-family="Arial" font-size="12px" font-style="normal" font-weight="normal" text-decoration="" line-height="14px" x="2.485795259475708" y="11" data-layerId="oEiSIQcXKEuz">https</text></g></g><g data-width="150" data-height="100" data-layerId="oEiSIQcXKEuz" transform="translate(0,0) matrix(1,0,0,1,240,10)"><g><g transform="translate(0,0) scale(1.5,1)"><g><path fill="#FFFFFF" stroke="#000000" data-layerId="oEiSIQcXKEuz" stroke-dasharray="1.7976931348623157e+308" d="M 0 0 L 100 0 L 100 100 L 0 100 L 0 0 L 6.666666666666666 -10 L 106.66666666666667 -10 L 100 0 L 106.66666666666667 -10 L 106.66666666666667 90 L 100 100" stroke-linejoin="round" stroke-miterlimit="10" stroke-width="2"/><g transform="scale(0.6666666666666666,1)"/></g></g></g></g><g transform="matrix(1,0,0,1,242,18)"><g><g><rect fill="rgb(0,0,0)" stroke="none" x="0" y="0" width="146" height="14" fill-opacity="0"/></g></g><g><g><rect fill="rgb(0,0,0)" stroke="none" x="0" y="0" width="146" height="14" fill-opacity="0"/></g></g><g><g><rect fill="rgb(0,0,0)" stroke="none" x="31.008522033691406" y="0" width="84" height="14" fill-opacity="0"/></g></g><g><g><rect fill="rgb(0,0,0)" stroke="none" x="31.008522033691406" y="0" width="84" height="14" fill-opacity="0"/></g><text fill="rgb(0, 0, 0)" stroke="none" font-family="Arial" font-size="12px" font-style="normal" font-weight="normal" text-decoration="" line-height="14px" x="31.008522033691406" y="11" data-layerId="oEiSIQcXKEuz">Indy</text><text fill="rgb(0, 0, 0)" stroke="none" font-family="Arial" font-size="12px" font-style="normal" font-weight="normal" text-decoration="" line-height="14px" x="56.9886360168457" y="11" data-layerId="oEiSIQcXKEuz">Blockchain</text></g></g><g data-layerId="oEiSIQcXKEuz" transform="matrix(1,0,0,1,375,45)"><g transform="translate(0,0)"><path fill="none" stroke="none" stroke-dasharray="undefined"/><g transform="translate(-391,-61) translate(16,16) matrix(1,0,0,1,0,0)"><g><g><path fill="none" stroke="#000000" stroke-dasharray="undefined" d="M 390 60 L 535 60 Q 545 60 545 70 L 545 130" stroke-miterlimit="10" stroke-width="2"/></g></g></g></g></g><g transform="matrix(1,0,0,1,489,53)"><g><path fill="none" stroke="none" data-layerId="oEiSIQcXKEuz" stroke-dasharray="1.7976931348623157e+308" d="M 0 0 L 31 0 L 31 14 L 0 14 Z"/><g><rect fill="rgb(255, 255, 255)" stroke="none" x="0" y="0" width="31" height="14"/></g></g><g><path fill="none" stroke="none" data-layerId="oEiSIQcXKEuz" stroke-dasharray="1.7976931348623157e+308" d="M 0 0 L 31 0 L 31 14 L 0 14 Z"/><g><rect fill="rgb(0,0,0)" stroke="none" x="0" y="0" width="31" height="14" fill-opacity="0"/></g></g><g><path fill="none" stroke="none" data-layerId="oEiSIQcXKEuz" stroke-dasharray="1.7976931348623157e+308" d="M 2.485795259475708 0 L 27.485795259475708 0 L 27.485795259475708 14 L 2.485795259475708 14 Z"/><g><rect fill="rgb(0,0,0)" stroke="none" x="2.485795259475708" y="0" width="25" height="14" fill-opacity="0"/></g></g><g><path fill="none" stroke="none" data-layerId="oEiSIQcXKEuz" stroke-dasharray="1.7976931348623157e+308" d="M 2.485795259475708 0 L 27.485795259475708 0 L 27.485795259475708 14 L 2.485795259475708 14 Z"/><g><rect fill="rgb(0,0,0)" stroke="none" x="2.485795259475708" y="0" width="25" height="14" fill-opacity="0"/></g><text fill="rgb(0, 0, 0)" stroke="none" font-family="Arial" font-size="12px" font-style="normal" font-weight="normal" text-decoration="" line-height="14px" x="2.485795259475708" y="11" data-layerId="oEiSIQcXKEuz">https</text></g></g></g></svg>